<svg width="28" height="28" viewBox="0 0 28 28" fill="none" xmlns="http://www.w3.org/2000/svg">
<path fill-rule="evenodd" clip-rule="evenodd" d="M14 25.2C16.9705 25.2 19.8192 24.0201 21.9196 21.9196C24.0201 19.8192 25.2 16.9705 25.2 14C25.2 11.0296 24.0201 8.18086 21.9196 6.08045C19.8192 3.98005 16.9705 2.80005 14 2.80005C11.0296 2.80005 8.18086 3.98005 6.08045 6.08045C3.98005 8.18086 2.80005 11.0296 2.80005 14C2.80005 16.9705 3.98005 19.8192 6.08045 21.9196C8.18086 24.0201 11.0296 25.2 14 25.2ZM6.06485 11.2378C6.58466 9.74925 7.51215 8.43659 8.74165 7.44945C9.11685 8.02205 9.76365 8.40005 10.5 8.40005C11.057 8.40005 11.5911 8.6213 11.985 9.01512C12.3788 9.40895 12.6 9.94309 12.6 10.5V11.2C12.6 11.9427 12.895 12.6548 13.4201 13.1799C13.9453 13.705 14.6574 14 15.4 14C16.1427 14 16.8548 13.705 17.3799 13.1799C17.905 12.6548 18.2 11.9427 18.2 11.2C18.1998 10.5734 18.4098 9.96487 18.7964 9.4717C19.1829 8.97854 19.7237 8.62929 20.3322 8.47985C21.6683 10.0082 22.4032 11.9701 22.4 14C22.4 14.476 22.3608 14.945 22.2838 15.4H21C20.2574 15.4 19.5453 15.695 19.0201 16.2201C18.495 16.7453 18.2 17.4574 18.2 18.2V21.2758C16.9237 22.0144 15.4747 22.4022 14 22.4V19.6C14 18.8574 13.705 18.1453 13.1799 17.6202C12.6548 17.095 11.9427 16.8 11.2 16.8C10.4574 16.8 9.74525 16.505 9.22015 15.9799C8.69505 15.4548 8.40005 14.7427 8.40005 14C8.4003 13.3378 8.16584 12.697 7.73831 12.1913C7.31078 11.6856 6.71786 11.3478 6.06485 11.2378Z" fill="black"/>
</svg>
