<svg width="28" height="28" viewBox="0 0 28 28" fill="none" xmlns="http://www.w3.org/2000/svg">
<path fill-rule="evenodd" clip-rule="evenodd" d="M5.60005 2.80005C4.85744 2.80005 4.14525 3.09505 3.62015 3.62015C3.09505 4.14525 2.80005 4.85744 2.80005 5.60005V21C2.80005 22.114 3.24255 23.1822 4.0302 23.9699C4.81785 24.7576 5.88614 25.2 7.00005 25.2C8.11396 25.2 9.18224 24.7576 9.9699 23.9699C10.7575 23.1822 11.2 22.114 11.2 21V5.60005C11.2 4.85744 10.905 4.14525 10.3799 3.62015C9.85485 3.09505 9.14265 2.80005 8.40005 2.80005H5.60005ZM7.00005 22.4C7.37135 22.4 7.72745 22.2525 7.99 21.99C8.25255 21.7274 8.40005 21.3714 8.40005 21C8.40005 20.6287 8.25255 20.2726 7.99 20.0101C7.72745 19.7475 7.37135 19.6 7.00005 19.6C6.62875 19.6 6.27265 19.7475 6.0101 20.0101C5.74755 20.2726 5.60005 20.6287 5.60005 21C5.60005 21.3714 5.74755 21.7274 6.0101 21.99C6.27265 22.2525 6.62875 22.4 7.00005 22.4ZM14 19.9402L20.86 13.0802C21.385 12.5552 21.6798 11.8431 21.6798 11.1006C21.6798 10.3582 21.385 9.64613 20.86 9.12105L18.879 7.14005C18.354 6.61513 17.6419 6.32025 16.8994 6.32025C16.157 6.32025 15.4449 6.61513 14.9198 7.14005L14 8.05985V19.9402ZM22.4 25.2H12.6994L21.0994 16.8H22.4C23.1427 16.8 23.8548 17.095 24.3799 17.6202C24.905 18.1453 25.2 18.8574 25.2 19.6V22.4C25.2 23.1427 24.905 23.8548 24.3799 24.3799C23.8548 24.905 23.1427 25.2 22.4 25.2Z" fill="#282938"/>
</svg>
